# xmcd
#
# Track frame offsets: 
#        150
#        17842
#        36337
#        48920
#        72212
#        81077
#        90402
#        101700
#        120282
#        133967
#        142160
#        145917
#        154337
#        171325
#        185750
#        203010
#        228202
#        240722
#        289732
#
# Disc length: 4206 seconds
#
# Revision: 1
# Processed by: cddbd v1.5.2PL0 Copyright (c) Steve Scherf et al.
# Submitted via: ExactAudioCopy v0.95b4
#
DISCID=13106c13
DTITLE=Tom Waits - Tales From The Underground 2
DYEAR=1996
DGENRE=
TTITLE0=Waitin' For Waits
TTITLE1=I'll Never Let Go Of Your Head
TTITLE2=Walk Away
TTITLE3=Sleep Tonight
TTITLE4=I'm Crazy 'bout My Baby
TTITLE5=Pontiac
TTITLE6=Take Care Of All My Children
TTITLE7=Serrano
TTITLE8=The Fall Of Troy
TTITLE9=Jesus Blood Never Failed Me Yet
TTITLE10=Martin Goes And Does Where It's At
TTITLE11=Eggs And Sausage
TTITLE12=Date To Church
TTITLE13=Metrotown
TTITLE14=Thousand Bing Bangs
TTITLE15=Down There By The Train
TTITLE16=Sweet And Shiny Eyes
TTITLE17=Fumblin' With The Blues, Drunk To The Moon, Virginia Avenue -
TTITLE17=Live Bonus Tracks (rec. live may 26th 1976, Amsterdam)
TTITLE18=Tango Till They're Sore - Live Bonus Track (rec. live nov. 16
TTITLE18=th 1985, Paris)
EXTD=
EXTT0=
EXTT1=
EXTT2=
EXTT3=
EXTT4=
EXTT5=
EXTT6=
EXTT7=
EXTT8=
EXTT9=
EXTT10=
EXTT11=
EXTT12=
EXTT13=
EXTT14=
EXTT15=
EXTT16=
EXTT17=
EXTT18=
PLAYORDER=
